<svg width="1024" height="1024" viewBox="0 0 1024 1024" fill="none" xmlns="http://www.w3.org/2000/svg">
<rect width="1024" height="1024" fill="white"/>
<path d="M231.229 616.783C250.405 641.98 275.33 659.052 303.502 671.848C328.429 683.169 354.463 691.434 380.493 699.714C419.908 712.252 458.915 725.743 494.475 747.509C519.84 763.034 542.214 782.031 561.632 804.536C562.926 806.037 564.279 807.487 565.605 808.961C568.037 807.933 567.6 805.86 567.83 804.189C571.62 776.748 562.497 753.372 545.064 732.713C531.266 716.361 514.324 703.733 496.438 692.273C464.234 671.642 429.721 655.302 395.689 638.068C362.975 621.502 330.362 604.733 300.632 583.036C278.232 566.688 258.296 547.971 244.732 523.305C231.628 499.475 228.162 474.045 231.95 447.386C231.985 447.137 232.352 446.934 232.585 446.688C234.46 446.891 234.289 448.533 234.558 449.703C242.363 483.633 262.505 509.316 288.915 530.714C317.108 553.557 349.168 569.908 381.715 585.381C419.922 603.545 459.112 619.638 496.413 639.712C526.033 655.653 554.294 673.531 577.22 698.611C601.353 725.011 614.886 755.868 616.467 791.923C617.841 823.274 611.244 853.121 600.955 882.389C598.581 889.142 595.891 895.785 593.281 902.454C592.937 903.333 592.21 904.063 591.747 904.736C589.732 904.758 589.376 903.27 588.811 902.149C559.466 843.87 512.167 805.007 454.298 777.478C420.699 761.494 385.599 749.316 350.875 736.17C318.589 723.947 286.529 711.225 258.533 690.329C224.449 664.889 206.211 630.779 202.556 588.58C201.881 580.788 200.986 573.028 201.586 565.195C201.645 564.415 201.538 563.509 203.326 562.835C209.976 582.022 218.64 600.251 231.229 616.783Z" fill="#022559"/>
<path d="M636.85 630.215C653.478 656.723 663.724 685.029 667.484 715.853C672.127 753.918 665.001 790.07 651.299 825.311C650.119 828.346 650.124 832.17 646.822 834.336C645.155 832.261 646.477 830.508 646.954 828.918C659.521 787.001 653.843 746.838 634.866 708.189C614.511 666.734 583.69 634.156 546.923 606.896C514.667 582.979 479.096 564.679 443.517 546.405C412.686 530.571 381.856 514.705 353.57 494.476C319.799 470.325 290.881 441.702 272.031 404.115C257.8 375.738 251.722 345.742 255.844 314.069C260.922 275.054 279.268 242.932 308 216.61C339.32 187.917 376.747 172.106 418.404 165.685C456.077 159.877 493.065 163.781 529.592 173.803C530.935 174.172 532.671 174.067 533.21 176.66C529.169 176.443 525.324 176.295 521.489 176.02C473.546 172.579 426.945 177.673 383.191 198.964C353.293 213.512 328.547 234.084 312.909 264.076C299.072 290.616 296.357 318.514 304.218 347.415C314.575 385.491 338.899 413.655 368.799 437.673C393.049 457.153 420.007 472.503 447.128 487.521C480.058 505.755 513.529 523.044 545.236 543.415C574.39 562.144 601.663 583.097 623.217 610.652C628.044 616.823 632.553 623.226 636.85 630.215Z" fill="#01A09B"/>
<path d="M666.513 321.478C664.867 309.749 661.477 298.874 657.805 287.721C661.101 287.89 661.438 290.023 662.243 291.487C674.014 312.9 683.445 335.216 688.358 359.285C690.362 369.107 689.915 379.201 691.873 389.014C696.786 413.633 707.879 435.498 721.973 455.98C725.935 461.739 730.273 467.242 734.499 472.817C746.645 488.841 750.299 506.115 743.004 525.385C738.056 538.458 734.326 551.962 728.949 564.911C725.432 573.38 719.378 577.698 710.658 579.182C699.68 581.05 688.798 583.063 678.153 586.746C662.222 592.257 641.378 578.337 641.243 561.751C641.115 545.981 632.957 536.266 620.506 528.979C613.043 524.61 605.019 521.197 597.567 516.811C576.88 504.636 561.722 487.205 550.928 465.956C548.646 461.464 545.87 458.944 540.875 457.517C521.731 452.046 507.062 440.057 495.077 424.49C493.977 423.061 493.199 421.303 490.517 420.27C474.463 439.582 468.197 461.366 474.713 486.412C471.491 487.067 470.041 485.344 468.458 484.027C455.416 473.172 449.145 458.556 447.004 442.345C443.713 417.436 448.574 393.909 464.414 374.057C472.797 363.552 481.238 353.45 487.202 341.225C491.467 332.484 499.137 326.134 506.989 320.359C507.875 319.708 508.675 318.646 510.118 319.297C511.095 321.19 509.494 322.393 508.714 323.7C485.377 362.801 501.798 406.824 540.308 427.149C553.368 434.041 567.32 437.367 582.028 437.796C583.434 437.837 585.055 437.321 586.398 439.022C584.624 442.072 581.314 443.165 578.424 444.248C573.339 446.153 573.366 449.092 575.501 453.118C579.818 461.259 585.029 468.767 591.31 475.508C608.294 493.735 628.654 507.635 649.796 520.407C655.076 523.597 657.411 526.907 656.375 533.149C655.323 539.492 654.127 546.016 656.601 552.392C658.391 557.005 660.811 561.086 665.58 563.264C668.084 564.408 670.497 564.721 673.301 564.07C682.186 562.007 690.796 558.965 700.106 558.414C707.872 557.954 712.603 552.611 713.855 544.808C715.019 537.557 717.329 530.6 718.873 523.454C721.508 511.258 720.317 499.905 713.26 489.051C703.457 473.973 693.28 459.113 684.426 443.432C678.276 432.54 672.353 421.53 669.83 409.093C667.803 399.101 667.121 389.024 667.371 378.814C667.836 359.843 669.134 340.846 666.513 321.478Z" fill="#022559"/>
<path d="M613.813 215.794C618.894 209.203 621.151 201.707 623.206 194.531C625.43 193.654 626.544 194.867 627.721 195.708C644.533 207.725 655.596 223.257 656.949 244.482C657.897 259.372 665.416 270.053 677.545 277.985C679.357 279.17 681.172 280.35 682.971 281.554C691.882 287.516 693.538 292.052 690.552 302.283C688.816 308.231 686.946 311.819 684.265 314.342C682.468 313.556 682.935 311.862 682.725 310.453C682.06 305.99 680.893 301.68 679.206 297.481C677.351 292.866 674.261 289.776 669.497 288.129C664.147 286.279 658.952 283.997 654.054 281.12C644.227 275.348 637.069 267.386 634.222 256.025C631.461 256.759 630.734 259.042 629.31 260.534C617.736 272.663 603.419 276.978 587.098 275.253C565.408 272.961 543.874 269.723 522.966 263.235C521.198 262.686 519.001 262.683 517.374 259.759C544.352 262.444 570.695 266.442 596.727 258.167C577.862 257.704 561.302 249.62 544.341 242.907C533.948 238.794 523.462 235.352 512.067 234.942C494.113 234.296 478.587 241.005 463.585 249.737C462.109 250.596 460.89 252.333 458.731 251.519C458.238 249.395 459.999 248.538 460.999 247.375C480.165 225.078 504.483 217.784 532.911 223.128C545.65 225.524 558.214 228.889 570.981 231.102C587.802 234.017 602.864 230.925 613.813 215.794Z" fill="#01A09B"/>
<path d="M627.789 177.799C617.961 187.113 607.017 194.47 596.758 202.682C588.682 209.146 581.394 216.351 575.995 225.609C572.021 216.544 576.642 205.794 596.13 178.326C571.163 183.577 548.422 191.144 532.332 212.066C530.029 209.458 531.518 207.182 531.956 205.169C537.688 178.805 555.13 164.623 580.531 158.898C593.34 156.011 606.219 153.434 619.002 150.44C628.481 148.22 637.342 144.459 645.087 138.371C645.832 137.785 646.765 137.437 647.649 136.957C650.73 146.642 638.963 167.783 627.789 177.799Z" fill="#022559"/>
<path d="M677.793 191.726C674.259 199.509 670.729 206.872 664.871 212.77C662.447 215.211 659.926 217.608 655.446 218.89C656.641 210.514 661.085 203.818 662.406 195.886C654.253 195.977 646.218 198.815 638.14 195.22C638.724 194.51 638.942 193.98 639.309 193.839C651.457 189.17 661.922 182.231 670.949 172.673C675.814 167.522 682.552 164.706 691.24 164.938C686.527 174.325 682.243 182.859 677.793 191.726Z" fill="#022553"/>
</svg>
